<svg version="1.1" xmlns="http://www.w3.org/2000/svg" xmlns:xlink="http://www.w3.org/1999/xlink" x="0px" y="0px" width="1276px"
	 height="308.03px" viewBox="0 0 1276 308.03" style="overflow:visible;enable-background:new 0 0 1276 308.03;"
	 xml:space="preserve">
<style type="text/css">
	.st0{fill:#4ABCFF;}
	.st1{fill:#2E58A6;}
</style>
<defs>
</defs>
<g>
	<polygon class="st0" points="161.62,200.08 61.38,133.07 222.87,26 323.1,93.57 	"/>
	<polygon class="st1" points="323.1,308.03 222.87,241.02 222.87,26 323.1,93.57 	"/>
	<polygon class="st0" points="161.62,200.08 61.38,133.07 222.87,26 323.1,93.57 	"/>
	<polygon class="st1" points="100.24,308.03 0,241.02 0,0 100.24,67.57 	"/>
</g>
<g>
	<path class="st1" d="M485.59,95.69h20.91v117.88h-20.91v-50.39h-55.34v50.39h-20.31V95.69h20.31v47.41h55.34V95.69z"/>
	<path class="st1" d="M625.01,213.57l-12.46-28.68h-53.31l-13.04,28.68h-21.64l51.87-117.65h18.92l52.87,117.65H625.01z
		 M585.86,119.34l-19.74,46.86h39.55"/>
	<path class="st1" d="M1213.02,213.57l-12.46-28.68h-53.31l-13.04,28.68h-21.64l51.87-117.65h18.92l52.87,117.65H1213.02z
		 M1173.87,119.34l-19.74,46.86h39.55"/>
	<path class="st1" d="M819.94,129.09v84.67h-19.98V95.88h22.31l34.82,54.4l34.82-54.4h22.31v117.88h-20.79l0.01-83.67l-36.36,54.48"
		/>
	<path class="st1" d="M1074.55,188.35h22.5v25.22h-22.5V188.35z"/>
	<path class="st1" d="M1255.51,95.88H1276v117.88h-20.49V95.88z"/>
	<path class="st1" d="M714.81,94.21c-33.37,0-60.41,26.78-60.41,59.81s27.05,59.81,60.41,59.81c33.37,0,60.41-26.78,60.41-59.81
		S748.17,94.21,714.81,94.21z M714.92,195.43c-21.77,0-39.42-18.48-39.42-41.29s17.65-41.29,39.42-41.29
		c21.77,0,39.42,18.48,39.42,41.29S736.69,195.43,714.92,195.43z"/>
	<path class="st1" d="M999.31,94.21c-33.37,0-60.41,26.78-60.41,59.81s27.05,59.81,60.41,59.81c33.37,0,60.41-26.78,60.41-59.81
		S1032.68,94.21,999.31,94.21z M999.42,195.43c-21.77,0-39.42-18.48-39.42-41.29s17.65-41.29,39.42-41.29
		c21.77,0,39.42,18.48,39.42,41.29S1021.19,195.43,999.42,195.43z"/>
</g>
</svg>
