<?xml version="1.0" standalone="no"?><!DOCTYPE svg PUBLIC "-//W3C//DTD SVG 1.1//EN" "http://www.w3.org/Graphics/SVG/1.1/DTD/svg11.dtd"><svg t="1627029280816" class="icon" viewBox="0 0 1024 1024" version="1.1" xmlns="http://www.w3.org/2000/svg" p-id="2108" width="64" height="64" xmlns:xlink="http://www.w3.org/1999/xlink"><defs><style type="text/css">@font-face { font-family: feedback-iconfont; src: url("//at.alicdn.com/t/font_1031158_1uhr8ri0pk5.eot?#iefix") format("embedded-opentype"), url("//at.alicdn.com/t/font_1031158_1uhr8ri0pk5.woff2") format("woff2"), url("//at.alicdn.com/t/font_1031158_1uhr8ri0pk5.woff") format("woff"), url("//at.alicdn.com/t/font_1031158_1uhr8ri0pk5.ttf") format("truetype"), url("//at.alicdn.com/t/font_1031158_1uhr8ri0pk5.svg#iconfont") format("svg"); }
</style></defs><path d="M591.36 351.232c0-132.096-107.008-239.104-239.104-239.104C219.648 112.128 112.64 219.136 112.64 351.232c0 80.384 39.424 151.04 99.84 194.56C88.576 599.552 2.048 722.944 2.048 866.816h0.512c1.536 19.456 17.408 34.816 37.376 34.816s35.84-15.36 37.376-34.816v-2.56-1.024c0.512-142.336 107.008-259.072 244.224-274.944 10.24 1.536 20.48 2.048 30.72 2.048 132.096 0 239.104-107.008 239.104-239.104z m-239.104 165.376c-91.648 0-165.888-74.24-165.888-165.888s74.24-165.888 165.888-165.888 165.888 74.24 165.888 165.888c-0.512 92.16-74.752 165.888-165.888 165.888zM946.176 694.272c-6.144-6.144-14.336-9.216-22.528-9.216-17.92 0-32.256 14.336-32.256 32.256 0 9.216 3.584 17.408 9.728 23.04 34.816 35.84 54.272 83.968 54.272 135.168v8.192h1.536c3.584 14.336 16.384 25.088 31.744 25.088 16.896 0 31.232-13.312 32.768-29.696 0.512-1.536 0.512-2.56 0.512-3.584v-1.024c-0.512-68.608-27.648-132.096-75.776-180.224zM763.392 325.632c-98.304 0-178.688 79.872-178.688 178.688 0 53.76 24.576 104.96 66.56 138.752-89.088 43.008-146.432 133.12-146.432 232.96v6.144h1.536c3.584 14.336 16.384 25.088 31.744 25.088 17.408 0 32.256-13.824 32.768-31.232v-2.56c0-98.816 73.216-181.248 169.984-192 7.168 1.024 14.848 1.536 22.528 1.536 98.304 0 178.688-79.872 178.688-178.688s-80.384-178.688-178.688-178.688z m113.664 178.688c0 62.976-51.2 113.664-113.664 113.664s-113.664-51.2-113.664-113.664c0-62.976 51.2-113.664 113.664-113.664s113.664 50.688 113.664 113.664z" p-id="2109"></path></svg>